<?xml version="1.0" encoding="UTF-8" standalone="no"?>
<svg
   xmlns:dc="http://purl.org/dc/elements/1.1/"
   xmlns:cc="http://creativecommons.org/ns#"
   xmlns:rdf="http://www.w3.org/1999/02/22-rdf-syntax-ns#"
   xmlns:svg="http://www.w3.org/2000/svg"
   xmlns="http://www.w3.org/2000/svg"
   xmlns:sodipodi="http://sodipodi.sourceforge.net/DTD/sodipodi-0.dtd"
   xmlns:inkscape="http://www.inkscape.org/namespaces/inkscape"
   version="1.1"
   width="160"
   height="110"
   id="svg3046"
   inkscape:version="0.48.5 r10040"
   sodipodi:docname="tree.svg">
  <metadata
     id="metadata3067">
    <rdf:RDF>
      <cc:Work
         rdf:about="">
        <dc:format>image/svg+xml</dc:format>
        <dc:type
           rdf:resource="http://purl.org/dc/dcmitype/StillImage" />
        <dc:title></dc:title>
      </cc:Work>
    </rdf:RDF>
  </metadata>
  <defs
     id="defs3065" />
  <sodipodi:namedview
     pagecolor="#ffffff"
     bordercolor="#666666"
     borderopacity="1"
     objecttolerance="10"
     gridtolerance="10"
     guidetolerance="10"
     inkscape:pageopacity="0"
     inkscape:pageshadow="2"
     inkscape:window-width="1440"
     inkscape:window-height="773"
     id="namedview3063"
     showgrid="true"
     showborder="true"
     inkscape:showpageshadow="false"
     inkscape:zoom="1.2886364"
     inkscape:cx="114.33862"
     inkscape:cy="55"
     inkscape:window-x="0"
     inkscape:window-y="0"
     inkscape:window-maximized="1"
     inkscape:current-layer="svg3046">
    <inkscape:grid
       type="xygrid"
       id="grid3069"
       empspacing="5"
       visible="true"
       enabled="true"
       snapvisiblegridlinesonly="true"
       spacingx="5px"
       spacingy="5px" />
  </sodipodi:namedview>
  <desc
     iVinci="yes"
     version="4.5"
     gridStep="20"
     showGrid="no"
     snapToGrid="no"
     codePlatform="0"
     id="desc3048" />
  <g
     id="Shape1"
     style="fill:#ffffff">
    <desc
       id="desc3052"
       flag=""
       mesh=""
       locked="0"
       pers-end="0,0"
       pers-start="0,0"
       pers-size="0,0"
       pers-center="0,0"
       transform="matrix(0.973402,0,0,1,80,55.0151)"
       blurRadius="4"
       blurEnabled="0"
       shadowOpacity="160"
       shadowBlur="4"
       shadowOffsetY="2"
       shadowOffsetX="0"
       shadowEnabled="0"
       markerEnd="0"
       markerStart="0"
       strokeStyle="0"
       font-alignment="1"
       font-underline="0"
       font-bold="0"
       font-pixelSize="20"
       font-familyName="Helvetica"
       text=""
       bounding="rect(-82.186,-55.0151,164.372,110.03)"
       basicInfo-starPoints="5"
       basicInfo-polygonSides="6"
       basicInfo-roundedRectRadius="12"
       basicInfo-basicType="0"
       type="0"
       shapeID="1" />
  </g>
  <g
     id="Shape2">
    <desc
       id="desc3056"
       flag=""
       mesh=""
       locked="0"
       pers-end="0,0"
       pers-start="0,0"
       pers-size="0,0"
       pers-center="0,0"
       transform="matrix(-5.30753,0,0,1,49.2213,57.3627)"
       blurRadius="4"
       blurEnabled="0"
       shadowOpacity="160"
       shadowBlur="4"
       shadowOffsetY="2"
       shadowOffsetX="0"
       shadowEnabled="0"
       markerEnd="0"
       markerStart="0"
       strokeStyle="0"
       font-alignment="1"
       font-underline="0"
       font-bold="0"
       font-pixelSize="20"
       font-familyName="Helvetica"
       text=""
       bounding="rect(-1.64981,-63.5812,3.29962,127.162)"
       basicInfo-starPoints="5"
       basicInfo-polygonSides="6"
       basicInfo-roundedRectRadius="12"
       basicInfo-basicType="1"
       type="0"
       shapeID="2" />
  </g>
  <path
     style="fill:#ffffff;fill-opacity:1;stroke:none"
     d="M 4.9375 80 C 2.1967241 80 0 82.196724 0 84.9375 L 0 105.0625 C 0 107.80328 2.1967241 110 4.9375 110 L 135.0625 110 C 137.80328 110 140 107.80328 140 105.0625 L 140 84.9375 C 140 82.196724 137.80328 80 135.0625 80 L 121 80 L 118.78125 80.875 L 122.25 89.25 A 5.0005 5.0005 0 0 1 119.53125 95.78125 L 110.3125 99.625 A 5.0005 5.0005 0 0 1 103.75 96.90625 L 100.1875 88.3125 L 96.84375 89.65625 A 5.0005 5.0005 0 0 1 90 85 L 90 80 L 4.9375 80 z "
     id="rect3139" />
  <path
     style="fill:#ffffff;fill-opacity:1;stroke:none"
     d="M 24.9375 35 C 22.196724 35 20 37.196724 20 39.9375 L 20 60.0625 C 20 62.803276 22.196724 65 24.9375 65 L 90 65 L 90 50 A 5.0005 5.0005 0 0 1 94.9375 45 A 5.0005 5.0005 0 0 1 98.53125 46.46875 L 117.0625 65 L 155.0625 65 C 157.80328 65 160 62.803276 160 60.0625 L 160 39.9375 C 160 37.196724 157.80328 35 155.0625 35 L 24.9375 35 z M 100 62.0625 L 100 65 L 102.9375 65 L 100 62.0625 z "
     id="rect3286" />
  <g
     transform="translate(-50,-20)"
     id="g4085"
     style="fill:#ffffff;stroke:#ffffff;stroke-width:10;stroke-linejoin:round;stroke-miterlimit:4;stroke-opacity:1;stroke-dasharray:none">
    <g
       id="g4103" />
    <g
       id="g4107" />
  </g>
  <g
     id="g4081"
     transform="translate(-50,-20)"
     style="fill:#ffffff;stroke:none">
    <path
       sodipodi:nodetypes="cccc"
       inkscape:connector-curvature="0"
       id="path3301"
       d="m 145,70 25,25 -25,10 z"
       style="fill:#ffffff;stroke:none" />
    <path
       inkscape:connector-curvature="0"
       id="path4075"
       d="M 148.81717,91.90301 158.38426,115 l 9.23879,-3.82683 -9.56709,-23.09699 z"
       style="fill:#ffffff;fill-opacity:1;stroke:none" />
  </g>
  <path
     style="fill:#ffffff;fill-opacity:1;stroke:none"
     d="M 4.9375 10 C 2.1967241 10 0 12.196724 0 14.9375 L 0 35.0625 C 0 37.803276 2.1967241 40 4.9375 40 L 15 40 C 15 34.464796 19.46 30 25 30 L 140 30 L 140 14.9375 C 140 12.196724 137.80328 10 135.0625 10 L 4.9375 10 z "
     id="rect4091" />
</svg>
